<svg xmlns="http://www.w3.org/2000/svg" viewBox="0 0 32 32">
  <!-- Blue rounded square background -->
  <rect width="32" height="32" rx="7" fill="#4B6CF5"/>

  <!-- Palette body — white outline, no fill -->
  <path d="M16,5 C21,4.5 27,8 27.5,14 C28,20 24,26 19,27 C16.5,27.5 14.5,26 14.5,24 C14.5,22.5 12,21.5 10.5,22.5 C8.5,23.5 6,21.5 5.5,18.5 C5,15 6,10 9,7.5 C11,6 13.5,5 16,5 Z"
        fill="none" stroke="white" stroke-width="2" stroke-linejoin="round" stroke-linecap="round"/>

  <!-- Three paint wells -->
  <ellipse cx="13"   cy="12"   rx="1.2" ry="1.8" transform="rotate(-25 13 12)"     fill="none" stroke="white" stroke-width="1.5"/>
  <ellipse cx="17"   cy="10.5" rx="1.4" ry="2"   transform="rotate(-25 17 10.5)"   fill="none" stroke="white" stroke-width="1.5"/>
  <ellipse cx="21.5" cy="10"   rx="1.4" ry="2"   transform="rotate(-25 21.5 10)"   fill="none" stroke="white" stroke-width="1.5"/>
</svg>
